# xmcd
#
# Track frame offsets:
#	150
#	14804
#	28620
#	43492
#	60728
#	75438
#	91100
#	106590
#	119863
#	134061
#	148991
#	164236
#	178858
#	196024
#	209888
#	224184
#	236380
#	252641
#	267536
#	283680
#	300433
#
# Disc length: 4225 seconds
#
# Revision: 1
# Processed by: cddbd v1.5.2PL0 Copyright (c) Steve Scherf et al.
# Submitted via: EZCDAudioConverter 7.1.0.1
#
DISCID=59107f15
DTITLE=Nu Country Traxx Volume 234 US
DYEAR=2018
DGENRE=country
TTITLE0=Jason Aldean - Girl Like You
TTITLE1=Billy Currington - Bring It On Over
TTITLE2=Seth Ennis ft. Little Big Town - Call Your Mama
TTITLE3=Carrie Underwood - Love Wins
TTITLE4=Morgan Evans - Day Drunk
TTITLE5=Chris Lane - I Don't Know About You
TTITLE6=Walker McGuire - Growin' Up
TTITLE7=Amy Jack - Got A Life To Catch
TTITLE8=Michael Tyler - Remember These Words
TTITLE9=Adam Hambrick - Rockin' All Night Long
TTITLE10=AC Jones - Mr. Moon
TTITLE11=Brothers Osborne - I Don't Remember Me (Before You)
TTITLE12=Tenille Townes - Somebody's Daughter
TTITLE13=Lindsay Ell - Champagne
TTITLE14=Waterloo Revival - Wonder Woman
TTITLE15=Candy - Farm Girl
TTITLE16=Lee Gantt - Ruined This Town
TTITLE17=Taylon Hope - Could've Been A Country Song
TTITLE18=Rachel Wammack - Damage
TTITLE19=Celeste Kellogg - Country Swagger
TTITLE20=Spensha Baker - Old Soul
EXTD=
EXTT0=
EXTT1=
EXTT2=
EXTT3=
EXTT4=
EXTT5=
EXTT6=
EXTT7=
EXTT8=
EXTT9=
EXTT10=
EXTT11=
EXTT12=
EXTT13=
EXTT14=
EXTT15=
EXTT16=
EXTT17=
EXTT18=
EXTT19=
EXTT20=
PLAYORDER=
